<svg xmlns="http://www.w3.org/2000/svg" fill="#000" transform="matrix(1, 0, 0, 1, 0, 0)" viewBox="-4.5 -4.5 27 27"><g id="SVGRepo_bgCarrier" stroke-width="0"><path fill="#00bfff" d="M13.5,26.923333870974602C16.825110853875675,27.080443334481462,19.242715145772785,23.907458176368387,21.25796538825835,21.25796538825835C22.96480963131186,19.01394059319382,24.03589815636484,16.300494347193684,23.710020936778164,13.5C23.41496853142784,10.964405169660203,21.2851373248126,9.311771709763073,19.64066294267677,7.35933705732323C17.727041374108467,5.087352098046171,16.408872641559274,1.9798840377135294,13.5,1.3779512191540562C10.191844506738587,0.693394827154566,6.208514574735222,1.4725081073833794,4.1548611398693165,4.154861139869313C2.1862339838365012,6.726158191342643,3.7719343375603134,10.292656881608597,4.219160820779507,13.499999999999998C4.5732771084927055,16.03959119400042,4.983830466348678,18.4487909563946,6.442076348888387,20.55792365111161C8.315081218484035,23.26694265478487,10.210202237596036,26.767892929541052,13.5,26.923333870974602" strokewidth="0" transform="translate(-4.5,-4.5)"/></g><g id="SVGRepo_iconCarrier"><path fill="rgb(107 114 128)" d="M18 16.5c0 .83-.67 1.5-1.5 1.5h-7c-.83 0-1.5-.67-1.5-1.5 0-.293.095-.566.25-.814.443-.707.855-1.433 1.272-2.157l1.38-2.405c.364-.636.73-1.27 1.088-1.91.02-.038.256-.385.23-.425l-.443-.72-1.045-1.697L9.51 4.388l-.838-1.36c-.247-.4-.58-.815-.65-1.292-.05-.34.01-.696.185-.993C8.49.258 9.02-.003 9.572 0H17c.55 0 1 .45 1 1s-.45 1-1 1h-5.43l.59.983c.415.694.83 1.387 1.247 2.08l1.13 1.887c.197.33.472.673.454 1.074-.01.27-.13.517-.273.74-.35.55-.672 1.12-1.004 1.68l-1.438 2.425-1.092 1.84c-.016.025-.142.29-.173.29h5.49c.83 0 1.5.67 1.5 1.5zM1 18c-.08 0-.16-.01-.243-.03-.536-.134-.86-.677-.728-1.212l4-16c.134-.536.678-.862 1.213-.728s.86.677.727 1.213l-4 16c-.114.454-.52.757-.97.757z"/></g></svg>